<svg width="31" height="31" viewBox="0 0 31 31" fill="none" xmlns="http://www.w3.org/2000/svg">
<path d="M28.2422 19.3355L22.1422 15.5817C21.3806 15.1133 20.4769 14.9323 19.5935 15.0711C18.7101 15.2098 17.9053 15.6596 17.324 16.3391C16.7427 17.0182 16.4229 17.883 16.4226 18.7772V26.2845C16.4229 27.1787 16.7427 28.0434 17.324 28.7229C17.9053 29.4021 18.7101 29.8518 19.5935 29.9906C20.4769 30.1293 21.3806 29.9484 22.1422 29.48L28.2422 25.7261C29.353 25.0434 30.0299 23.8327 30.0299 22.5284C30.0299 21.2245 29.353 20.0137 28.2422 19.3307V19.3355ZM20.1764 26.2845V18.7771L26.2764 22.531L20.1764 26.2845Z" fill="white"/>
<path d="M5.63083 30.0387H11.7308C12.4014 30.0387 13.021 29.681 13.3561 29.1004C13.6913 28.5198 13.6913 27.8043 13.3561 27.2237C13.021 26.6427 12.4013 26.285 11.7308 26.285H5.63083C5.13301 26.285 4.65578 26.0873 4.30361 25.7355C3.95177 25.3833 3.75407 24.9061 3.75407 24.4082V9.86243C3.75407 9.36493 3.95177 8.88738 4.30361 8.53555C4.65579 8.18337 5.13299 7.98568 5.63083 7.98568H22.5227C23.0202 7.98568 23.4978 8.18337 23.8496 8.53555C24.2018 8.88739 24.3995 9.36492 24.3995 9.86243V12.2085C24.3995 12.8792 24.7572 13.4987 25.3378 13.8342C25.9185 14.1694 26.634 14.1694 27.2149 13.8342C27.7955 13.4987 28.1532 12.8792 28.1532 12.2085V9.86243C28.1519 8.53295 27.68 7.24662 26.8212 6.23168C25.9623 5.21641 24.7719 4.53788 23.461 4.31634V1.97025C23.4715 1.49173 23.3043 1.02594 22.9914 0.663638C22.6785 0.301316 22.2422 0.0682736 21.7673 0.00903471C21.2384 -0.0426791 20.7127 0.131769 20.32 0.489515C19.9276 0.847253 19.7047 1.35455 19.7073 1.88578V4.23187H15.9535V1.96563C15.9629 1.48777 15.795 1.02334 15.4821 0.661953C15.1696 0.300612 14.7339 0.0679047 14.2597 0.00898421C13.7311 -0.0427296 13.2051 0.131718 12.8126 0.489465C12.4198 0.847202 12.1973 1.3545 12.1996 1.88573V4.23182H8.44607V1.96558C8.45556 1.48772 8.28766 1.02329 7.97476 0.661903C7.66186 0.300563 7.22622 0.0678542 6.75194 0.0089337C6.22335 -0.0427801 5.69771 0.131669 5.3049 0.489415C4.91214 0.847153 4.68957 1.35445 4.69219 1.88568V4.31623C3.38106 4.53781 2.19067 5.2163 1.33183 6.23157C0.473324 7.24651 0.00134063 8.53284 0 9.86232V24.4081C0 25.9016 0.593067 27.3335 1.64931 28.3895C2.70522 29.4456 4.13709 30.0388 5.63063 30.0388L5.63083 30.0387Z" fill="white"/>
</svg>
