<svg width="23" height="23" viewBox="0 0 23 23" fill="none" xmlns="http://www.w3.org/2000/svg">
<g clip-path="url(#clip0_2956_2499)">
<path d="M20.3047 0H2.69531C1.20912 0 0 1.20912 0 2.69531V20.3047C0 21.7909 1.20912 23 2.69531 23H20.3047C21.7909 23 23 21.7909 23 20.3047V2.69531C23 1.20912 21.7909 0 20.3047 0ZM21.2031 20.3047C21.2031 20.8001 20.8001 21.2031 20.3047 21.2031H15.1836V13.8809H17.9593L18.418 11.0957H15.1836V9.16406C15.1836 8.40151 15.7687 7.81641 16.5312 7.81641H18.373V5.03125H16.5312C14.2437 5.03125 12.3994 6.88428 12.3994 9.17188V11.0957H9.70312V13.8809H12.3994V21.2031H2.69531C2.19991 21.2031 1.79688 20.8001 1.79688 20.3047V2.69531C1.79688 2.19991 2.19991 1.79688 2.69531 1.79688H20.3047C20.8001 1.79688 21.2031 2.19991 21.2031 2.69531V20.3047Z" fill="white"/>
</g>
<defs>
<clipPath id="clip0_2956_2499">
<rect width="23" height="23" fill="white"/>
</clipPath>
</defs>
</svg>
