<svg width="22" height="22" viewBox="0 0 22 22" fill="none" xmlns="http://www.w3.org/2000/svg">
<path d="M20.3406 0.768738H1.65938C1.01888 0.768738 0.5 1.28761 0.5 1.92811V20.6102C0.5 21.2499 1.01888 21.7687 1.65938 21.7687H11.7175V13.6365H8.9805V10.4672H11.7175V8.13011C11.7175 5.41761 13.3739 3.94061 15.7941 3.94061C16.9535 3.94061 17.9492 4.02724 18.2397 4.06574V6.90074L16.5615 6.90161C15.2455 6.90161 14.9909 7.52724 14.9909 8.44424V10.4681H18.1295L17.7209 13.6374H14.9909V21.7687H20.3424C20.9811 21.7687 21.5 21.2499 21.5 20.6094V1.92811C21.5 1.28761 20.9811 0.768738 20.3406 0.768738V0.768738Z" fill="#1877F2"/>
</svg>
