<svg width="23" height="23" viewBox="0 0 23 23" fill="none" xmlns="http://www.w3.org/2000/svg">
<g clip-path="url(#clip0_2956_2503)">
<path d="M11.7264 23C11.6502 23 11.5741 23 11.4974 22.9996C9.69455 23.004 8.02875 22.9582 6.40876 22.8596C4.92352 22.7692 3.56779 22.256 2.48791 21.3754C1.44593 20.5258 0.734369 19.3769 0.373063 17.9612C0.0586092 16.7286 0.0419389 15.5187 0.0259705 14.3485C0.0143891 13.5088 0.00245667 12.5139 0 11.5021C0.00245667 10.4861 0.0143891 9.49111 0.0259705 8.65146C0.0419389 7.48138 0.0586092 6.27147 0.373063 5.03875C0.734369 3.623 1.44593 2.47416 2.48791 1.6245C3.56779 0.743956 4.92352 0.230687 6.40893 0.140317C8.02893 0.0418744 9.69508 -0.00410049 11.5018 0.000286428C13.3052 -0.00357406 14.9704 0.0418744 16.5904 0.140317C18.0757 0.230687 19.4314 0.743956 20.5113 1.6245C21.5534 2.47416 22.2648 3.623 22.6261 5.03875C22.9406 6.27129 22.9572 7.48138 22.9732 8.65146C22.9848 9.49111 22.9969 10.4861 22.9992 11.4979V11.5021C22.9969 12.5139 22.9848 13.5088 22.9732 14.3485C22.9572 15.5186 22.9408 16.7285 22.6261 17.9612C22.2648 19.3769 21.5534 20.5258 20.5113 21.3754C19.4314 22.256 18.0757 22.7692 16.5904 22.8596C15.039 22.954 13.4454 23 11.7264 23V23ZM11.4974 21.2028C13.2709 21.207 14.8994 21.1622 16.4813 21.0661C17.6043 20.9978 18.5781 20.6333 19.3758 19.9829C20.1131 19.3815 20.621 18.5518 20.885 17.5169C21.1469 16.4909 21.1619 15.3892 21.1765 14.3239C21.1879 13.4899 21.1999 12.5019 21.2023 11.5C21.1999 10.4978 21.1879 9.51006 21.1765 8.67602C21.1619 7.61071 21.1469 6.50906 20.885 5.48288C20.621 4.44792 20.1131 3.61826 19.3758 3.0169C18.5781 2.36659 17.6043 2.00212 16.4813 1.93386C14.8994 1.83753 13.2709 1.79313 11.5016 1.79699C9.72842 1.79278 8.09982 1.83753 6.5179 1.93386C5.39485 2.00212 4.42113 2.36659 3.62342 3.0169C2.88606 3.61826 2.37823 4.44792 2.11414 5.48288C1.85233 6.50906 1.83724 7.61053 1.82268 8.67602C1.81127 9.51077 1.79934 10.4992 1.79688 11.5021C1.79934 12.5005 1.81127 13.4892 1.82268 14.3239C1.83724 15.3892 1.85233 16.4909 2.11414 17.5169C2.37823 18.5518 2.88606 19.3815 3.62342 19.9829C4.42113 20.6332 5.39485 20.9976 6.5179 21.0659C8.09982 21.1622 9.72877 21.2072 11.4974 21.2028V21.2028ZM11.4546 17.1152C8.35848 17.1152 5.83933 14.5963 5.83933 11.5C5.83933 8.40368 8.35848 5.88472 11.4546 5.88472C14.5509 5.88472 17.0698 8.40368 17.0698 11.5C17.0698 14.5963 14.5509 17.1152 11.4546 17.1152V17.1152ZM11.4546 7.6816C9.34922 7.6816 7.63621 9.3946 7.63621 11.5C7.63621 13.6053 9.34922 15.3183 11.4546 15.3183C13.5601 15.3183 15.273 13.6053 15.273 11.5C15.273 9.3946 13.5601 7.6816 11.4546 7.6816V7.6816ZM17.6987 4.08784C16.9545 4.08784 16.3511 4.69113 16.3511 5.4355C16.3511 6.17987 16.9545 6.78316 17.6987 6.78316C18.4431 6.78316 19.0464 6.17987 19.0464 5.4355C19.0464 4.69113 18.4431 4.08784 17.6987 4.08784Z" fill="white"/>
</g>
<defs>
<clipPath id="clip0_2956_2503">
<rect width="23" height="23" fill="white"/>
</clipPath>
</defs>
</svg>
