<svg width="34" height="36" viewBox="0 0 34 36" fill="none" xmlns="http://www.w3.org/2000/svg">
<g clip-path="url(#clip0_2778_2435)">
<path d="M11.7173 19.8762C11.53 19.6697 11.2284 19.6712 11.0432 19.8771L10.4706 20.5192L9.94675 20.0165C9.74993 19.8264 9.44918 19.8507 9.27631 20.0707L9.14396 20.243C8.97108 20.4635 8.9945 20.7981 9.19237 20.9885L10.3233 22.077C10.4372 22.1863 10.6148 22.1796 10.7209 22.0615L11.8615 20.7838C12.0476 20.5764 12.0468 20.2424 11.86 20.0359L11.7173 19.8762Z" fill="#F34C35"/>
<path d="M24.6073 20.1605C24.4533 19.9235 24.155 19.8725 23.9442 20.0459L23.3195 20.5554L22.7338 19.9124C22.5465 19.7073 22.2449 19.7108 22.0621 19.9173L21.9192 20.079C21.7347 20.2873 21.7363 20.6221 21.9237 20.8269L23.0154 22.0258C23.1224 22.1439 23.3061 22.1577 23.4285 22.0604L24.6275 21.082C24.8388 20.9106 24.8844 20.5785 24.7294 20.3429L24.6073 20.1605Z" fill="#F34C35"/>
<path d="M25.3739 19.5343L25.495 19.7182C25.6513 19.9529 25.9481 20.0047 26.1588 19.8307L28.1841 18.1794C28.3964 18.0063 28.4417 17.6741 28.2875 17.4395L28.1672 17.2561C28.0117 17.0209 27.7141 16.9702 27.5026 17.1416L25.4773 18.7958C25.2668 18.9674 25.22 19.2979 25.3739 19.5343Z" fill="#F34C35"/>
<path d="M6.55685 16.7536C6.36003 16.5617 6.05849 16.5861 5.8872 16.8078L5.75379 16.9795C5.58249 17.2003 5.60433 17.5346 5.80352 17.725L7.75514 19.6042C7.95328 19.7952 8.25376 19.7714 8.4248 19.5509L8.5582 19.3786C8.73029 19.1572 8.70845 18.8235 8.50926 18.6316L6.55685 16.7536Z" fill="#F34C35"/>
<path d="M19.5425 16.4079C19.3557 16.2037 19.0552 16.2058 18.8707 16.4144L18.7279 16.5764C18.5434 16.7829 18.5463 17.1186 18.7316 17.3239L20.5689 19.3416C20.7563 19.5458 21.057 19.544 21.2407 19.3358L21.3836 19.1741C21.5696 18.9667 21.5662 18.6319 21.3794 18.4262L19.5425 16.4079Z" fill="#F34C35"/>
<path d="M14.8771 16.339C14.691 16.1327 14.3913 16.1339 14.2053 16.3416L12.386 18.3774C12.2 18.5837 12.2016 18.92 12.3876 19.1268L12.5321 19.2858C12.7181 19.4915 13.0194 19.4909 13.2038 19.2832L15.0247 17.2473C15.2099 17.0402 15.2083 16.7048 15.0223 16.4995L14.8771 16.339Z" fill="#F34C35"/>
<path d="M17.0118 13.6295C16.9047 13.5126 16.7331 13.5126 16.6258 13.6316L15.5469 14.8411C15.3617 15.0473 15.3617 15.3827 15.5485 15.589L15.6914 15.7486C15.8782 15.9542 16.1779 15.9537 16.3632 15.746L16.8268 15.2289L17.3791 15.8379C17.5659 16.0415 17.8664 16.0401 18.0508 15.8312L18.1937 15.6698C18.3782 15.4624 18.3758 15.1267 18.19 14.9219L17.0118 13.6295Z" fill="#F34C35"/>
<path d="M5.76729 14.6449C5.83149 14.5772 5.81097 14.5084 5.72361 14.4946L4.77296 14.3417L4.34827 13.3827C4.30907 13.2954 4.24486 13.2954 4.2054 13.3827L3.78071 14.3417L2.83006 14.4946C2.74244 14.5084 2.72217 14.5773 2.78638 14.6449L3.47365 15.3916L3.31157 16.4444C3.29763 16.5425 3.34894 16.5841 3.42708 16.5384L4.27696 16.0404L5.12765 16.5384C5.20581 16.5841 5.2579 16.5425 5.24237 16.4444L5.08082 15.3916L5.76729 14.6449Z" fill="#F34C35"/>
<path d="M28.8684 15.6955L28.7058 16.7474C28.691 16.8453 28.7416 16.8877 28.8205 16.8414L29.6712 16.3438L30.5203 16.8414C30.5997 16.888 30.6516 16.8453 30.6366 16.7474L30.4745 15.6955L31.1618 14.948C31.2252 14.8794 31.2054 14.812 31.1189 14.7977L30.1671 14.6445L29.7425 13.6854C29.7043 13.5975 29.6398 13.5975 29.6004 13.6854L29.1757 14.6445L28.225 14.7977C28.1382 14.812 28.1171 14.8797 28.1806 14.948L28.8684 15.6955Z" fill="#F34C35"/>
<path d="M33.5339 0.0793916L25.5106 5.12956C25.2617 5.28569 24.8602 5.28569 24.6125 5.12956L17.4569 0.627498C17.209 0.472538 16.808 0.472538 16.5588 0.627498L9.4052 5.12956C9.15734 5.28569 8.75449 5.28569 8.50635 5.12956L0.483092 0.0793916C0.234702 -0.0755691 0.0339355 0.0559573 0.0339355 0.371735V29.6586C0.0339355 29.9761 0.234702 30.3599 0.483092 30.5157L8.50635 35.5638C8.75448 35.7196 9.15733 35.7196 9.4052 35.5638L16.5588 31.0631C16.8083 30.9064 17.2093 30.9064 17.4569 31.0631L24.6125 35.5638C24.8604 35.7196 25.2617 35.7196 25.5106 35.5638L33.5339 30.5157C33.7822 30.3599 33.983 29.9761 33.983 29.6586V0.371735C33.983 0.0559573 33.7822 -0.0755691 33.5339 0.0793916ZM32.2432 29.1045L25.9296 33.0758V21.1523L24.1913 22.5974V33.0758L17.8782 29.1042V17.6187L16.8604 16.5017L16.1395 17.2814V29.1037L9.82553 33.0753V22.7191L8.08575 21.0549V33.0752L1.77257 29.1045V3.11651L8.08522 7.08952V17.0693L9.82499 18.7326V7.08952L16.1389 3.11651V13.07L16.8759 12.2732L17.8773 13.3726V3.11614L24.1905 7.08914V18.8252L25.9288 17.3784V7.08967L32.2422 3.11666V29.1047L32.2432 29.1045Z" fill="#252A26"/>
</g>
<defs>
<clipPath id="clip0_2778_2435">
<rect width="34" height="35.7143" fill="white"/>
</clipPath>
</defs>
</svg>
