<svg width="35" height="23" viewBox="0 0 35 23" fill="none" xmlns="http://www.w3.org/2000/svg">
<path d="M22.1676 3.021H12.731V19.9789H22.1676V3.021Z" fill="#FF5F00"/>
<path d="M13.3302 11.5C13.3287 9.86687 13.6988 8.25477 14.4125 6.78578C15.1261 5.31679 16.1646 4.02941 17.4493 3.02111C15.8584 1.77057 13.9477 0.992882 11.9356 0.776926C9.92356 0.560971 7.89134 0.915455 6.07123 1.79988C4.25112 2.6843 2.71656 4.06297 1.64295 5.77831C0.569335 7.49364 0 9.47642 0 11.5C0 13.5236 0.569335 15.5064 1.64295 17.2218C2.71656 18.9371 4.25112 20.3158 6.07123 21.2002C7.89134 22.0846 9.92356 22.4391 11.9356 22.2231C13.9477 22.0072 15.8584 21.2295 17.4493 19.979C16.1646 18.9706 15.1261 17.6833 14.4125 16.2143C13.6988 14.7453 13.3287 13.1332 13.3302 11.5Z" fill="#EB001B"/>
<path d="M34.8981 11.5C34.8982 13.5236 34.3289 15.5064 33.2554 17.2217C32.1818 18.9371 30.6473 20.3157 28.8273 21.2002C27.0072 22.0846 24.975 22.4391 22.963 22.2231C20.9509 22.0072 19.0403 21.2295 17.4493 19.979C18.7329 18.9696 19.7706 17.6821 20.4842 16.2133C21.1977 14.7445 21.5684 13.1329 21.5684 11.5C21.5684 9.86713 21.1977 8.25553 20.4842 6.78677C19.7706 5.31801 18.7329 4.03043 17.4493 3.0211C19.0403 1.77057 20.9509 0.992876 22.963 0.776924C24.975 0.560971 27.0072 0.91547 28.8273 1.7999C30.6473 2.68433 32.1818 4.06301 33.2554 5.77834C34.3289 7.49367 34.8982 9.47645 34.8981 11.5Z" fill="#F79E1B"/>
<path d="M33.8694 18.1828V17.8356H34.0094V17.7648H33.6528V17.8356H33.7929V18.1828H33.8694ZM34.5615 18.1828V17.7642H34.4523L34.3266 18.0521L34.2008 17.7642H34.0915V18.1828H34.1686V17.867L34.2865 18.1392H34.3665L34.4844 17.8663V18.1828H34.5615Z" fill="#F79E1B"/>
</svg>
