<svg width="125" height="146" viewBox="0 0 125 146" fill="none" xmlns="http://www.w3.org/2000/svg">
<path fill-rule="evenodd" clip-rule="evenodd" d="M111.289 146L0 133.02L18.4782 0L93.3298 8.39498L125 49.0572L111.289 146ZM86.4343 16.4605L27.1099 10.5188L10.3014 124.502L102.657 135.752L113.817 58.8977L78.2281 54.1301L86.4343 16.4605ZM36.8708 104.367C36.2266 103.528 30.5232 98.7729 29.4515 97.3028C44.6299 80.4794 81.6991 80.6884 91.9922 102.945C90.2763 103.574 82.6171 106.874 81.1165 107.714C76.8209 95.298 51.6669 91.3802 36.8689 104.367H36.8708ZM65.4132 58.3759L59.1587 63.0624L49.753 51.7868L36.9463 58.6277L31.7781 50.0248L43.426 44.2066L35.7059 34.9544L45.0867 28.7064L52.5741 39.638L65.9116 32.976L69.931 41.0065L57.9109 47.429L65.4132 58.3759Z" fill="#252A26"/>
</svg>
