<svg width="40" height="35" viewBox="0 0 40 35" fill="none" xmlns="http://www.w3.org/2000/svg">
<path fill-rule="evenodd" clip-rule="evenodd" d="M7.3531 0.714294C15.7847 0.714294 24.2158 0.714294 32.6474 0.714294L36.863 16.1193C38.361 21.5929 28.4314 21.8034 28.4314 16.1193C28.4314 21.8034 20.0003 21.8028 20.0003 16.1193C20.0003 21.8028 11.5687 21.8034 11.5687 16.1193C11.5687 21.8034 1.63896 21.5934 3.13705 16.1193L7.3531 0.714294ZM0 32.59H6.54069V21.3824C7.24959 21.4154 7.98273 21.3351 8.67851 21.1396V32.59H31.3215V21.1401C32.0178 21.3356 32.7504 21.4154 33.4593 21.3824V32.59H40V34.7687C26.6667 34.7687 13.3333 34.7687 0 34.7687V32.59Z" fill="#252A26"/>
</svg>
