<svg width="25" height="20" viewBox="0 0 25 20" fill="none" xmlns="http://www.w3.org/2000/svg">
<path d="M0.35757 17.7896C2.63673 19.2358 5.28925 20 8.02793 20C12.0385 20 15.7137 18.4594 18.3775 15.6622C20.9264 12.9851 22.3286 9.38786 22.2588 5.73731C23.2251 4.91058 24.3616 3.33199 24.3616 1.7934C24.3616 1.20361 23.7215 0.829223 23.2025 1.12976C22.2947 1.66314 21.467 1.80263 20.6156 1.56364C18.877 -0.130855 16.2891 -0.487807 14.1084 0.687673C12.2026 1.7134 11.1431 3.59047 11.2384 5.64192C8.0187 5.24907 5.0441 3.63458 2.97009 1.12566C2.62955 0.716393 1.98334 0.764602 1.71255 1.22823C0.713496 2.93914 0.723753 4.92186 1.59254 6.52302C1.17917 6.59584 0.923769 6.94356 0.923769 7.32C0.923769 8.92936 1.64793 10.4085 2.81418 11.4178C2.59672 11.627 2.52492 11.9378 2.61724 12.2148C3.1301 13.7554 4.29122 14.9596 5.74262 15.5627C4.16403 16.3166 2.41825 16.5679 0.864278 16.3771C0.0601102 16.2684 -0.336845 17.3495 0.35757 17.7896V17.7896ZM8.23821 15.8263C8.81364 15.3842 8.50797 14.4631 7.78586 14.4478C6.51396 14.4211 5.35592 13.7944 4.63484 12.8087C4.98256 12.7861 5.34259 12.7327 5.68518 12.6404C6.46575 12.4291 6.42883 11.3029 5.63594 11.1439C4.19685 10.8546 3.06753 9.80636 2.64391 8.45651C3.03061 8.5519 3.42448 8.60524 3.81734 8.61242C4.59586 8.61652 4.89024 7.61849 4.25532 7.20102C2.82444 6.25838 2.21413 4.59363 2.61827 3.02837C5.11693 5.55986 8.50694 7.08511 12.0929 7.25743C12.6068 7.28923 12.9924 6.80612 12.8796 6.31684C12.3924 4.20488 13.572 2.72476 14.8387 2.04265C16.0922 1.36568 18.1046 1.15438 19.6473 2.77297C20.1058 3.25609 21.6526 3.27455 22.4393 3.09094C22.0865 3.75561 21.5439 4.38643 21.0362 4.74133C20.8197 4.89314 20.6956 5.14547 20.709 5.40908C20.8741 8.77858 19.6186 12.1286 17.2646 14.5996C14.8931 17.089 11.6139 18.4604 8.02896 18.4604C6.6032 18.4604 5.20514 18.2286 3.88401 17.7814C5.46362 17.4757 6.96426 16.8069 8.23821 15.8263V15.8263Z" fill="white"/>
</svg>
