<svg width="22" height="22" viewBox="0 0 22 22" fill="none" xmlns="http://www.w3.org/2000/svg">
<g clip-path="url(#clip0_2780_2447)">
<path d="M21.166 4.56675C20.6994 4.77365 20.2151 4.93688 19.7181 5.05505C20.2657 4.53465 20.6775 3.88374 20.9097 3.15721C20.9761 2.9498 20.7508 2.77044 20.5635 2.8815C19.8721 3.29161 19.1273 3.59927 18.3498 3.79603C18.3047 3.80745 18.2582 3.81324 18.2115 3.81324C18.0699 3.81324 17.9322 3.76066 17.8239 3.66522C16.9967 2.93618 15.9328 2.53467 14.8283 2.53467C14.3503 2.53467 13.8678 2.60916 13.394 2.75611C11.926 3.21143 10.7933 4.42237 10.4379 5.91639C10.3046 6.47677 10.2685 7.03767 10.3305 7.58346C10.3376 7.64618 10.308 7.68996 10.2897 7.71049C10.2576 7.74649 10.2121 7.76712 10.1648 7.76712C10.1596 7.76712 10.1541 7.76686 10.1488 7.76635C6.93533 7.4678 4.03761 5.91966 1.98934 3.40717C1.8849 3.27902 1.6846 3.29473 1.60135 3.43753C1.20025 4.12566 0.988278 4.91271 0.988278 5.71358C0.988278 6.94095 1.48139 8.09762 2.33791 8.94083C1.97772 8.85543 1.6291 8.72093 1.30526 8.54106C1.14859 8.45402 0.955817 8.56589 0.953615 8.74509C0.93119 10.5684 1.99871 12.1909 3.5979 12.9214C3.56569 12.9222 3.53349 12.9226 3.50123 12.9226C3.24774 12.9226 2.99107 12.8981 2.73845 12.8498C2.56202 12.8161 2.41379 12.9835 2.46858 13.1546C2.98764 14.7751 4.38295 15.9696 6.05269 16.2408C4.66691 17.1711 3.05313 17.6618 1.37351 17.6618L0.849884 17.6614C0.688552 17.6614 0.552104 17.7666 0.51099 17.9229C0.470491 18.0768 0.545089 18.2391 0.682664 18.3192C2.57533 19.4206 4.73418 20.0028 6.92678 20.0028C8.84602 20.0028 10.6413 19.6219 12.2628 18.8708C13.7493 18.1822 15.0629 17.1979 16.1671 15.9452C17.1957 14.7782 18 13.4311 18.5577 11.9413C19.0893 10.5211 19.3703 9.0058 19.3703 7.55909V7.49018C19.3703 7.25788 19.4753 7.03931 19.6586 6.89052C20.3542 6.32578 20.9599 5.661 21.4588 4.91466C21.5906 4.71759 21.3828 4.4706 21.166 4.56675Z" fill="#1D9BF0"/>
</g>
<defs>
<clipPath id="clip0_2780_2447">
<rect width="21" height="21" fill="white" transform="translate(0.5 0.768738)"/>
</clipPath>
</defs>
</svg>
