<svg width="51" height="17" viewBox="0 0 51 17" fill="none" xmlns="http://www.w3.org/2000/svg">
<path fill-rule="evenodd" clip-rule="evenodd" d="M12.7506 16.8675H8.33683L5.02706 3.67939C4.86995 3.07274 4.53641 2.53643 4.04575 2.28365C2.82127 1.64842 1.47197 1.14288 0 0.887906V0.380163H7.11019C8.0915 0.380163 8.82747 1.14288 8.95013 2.02868L10.6674 11.5417L15.079 0.380163H19.37L12.7506 16.8675ZM21.8233 16.8675H17.6549L21.0873 0.380163H25.2558L21.8233 16.8675ZM30.6487 4.94775C30.7713 4.05974 31.5073 3.55201 32.366 3.55201C33.7154 3.42453 35.1851 3.67949 36.4117 4.31252L37.1477 0.762714C35.9211 0.25497 34.5718 0 33.3474 0C29.3016 0 26.3577 2.28374 26.3577 5.45329C26.3577 7.86452 28.443 9.13058 29.9148 9.8933C31.5073 10.6538 32.1207 11.1616 31.998 11.9221C31.998 13.0628 30.7713 13.5706 29.5468 13.5706C28.075 13.5706 26.6029 13.1903 25.2558 12.5551L24.5198 16.1071C25.9918 16.7401 27.5843 16.9951 29.0562 16.9951C33.5926 17.1204 36.4117 14.8388 36.4117 11.4143C36.4117 7.10181 30.6487 6.84904 30.6487 4.94775ZM51 16.8675L47.6903 0.380163H44.1351C43.3992 0.380163 42.6632 0.887906 42.4178 1.64842L36.289 16.8675H40.5801L41.4366 14.4585H46.709L47.1996 16.8675H51ZM44.7485 4.8203L45.973 11.0341H42.5406L44.7485 4.8203Z" fill="#172B85"/>
</svg>
